<svg width="430" height="92" viewBox="0 0 430 92" fill="none" xmlns="http://www.w3.org/2000/svg">
<path d="M196.327 52.6448V52.6448C196.945 55.1306 195.372 57.5664 194.523 59.9831C192.468 65.8355 188.687 77.1058 188.687 80.8144C188.687 85.9071 197.185 89.9935 197.854 90.3314V90.3314C199.84 91.3357 193.677 90.906 191.486 90.5086C182.046 88.796 174.224 84.7866 172.455 83.8992C170.484 82.9098 170.799 81.833 172.39 81.833C173.982 81.833 179.52 81.833 179.52 81.833C181.852 81.9706 183.036 81.568 184.613 78.7773C187.451 71.5368 191.742 58.4065 191.742 56.3694C191.742 54.3323 192.761 52.2952 184.613 52.2952C176.464 52.2952 155.533 45.261 122.5 52.2952C89.4672 59.3295 65 42.5172 37 48.221C9 53.9249 -2.67005 58.3266 -20 51.2767M196.327 52.6448C196.211 52.1775 196.033 51.7254 195.817 51.2767C192.904 44.2769 192.436 39.8017 192.717 32.0171C192.743 31.2841 192.954 30.4142 193.314 29.7753V29.7753C195.199 26.4332 199.676 25.8023 203.511 25.9546C205.675 26.0407 207.487 26.5028 208.039 26.8316C208.276 26.9728 208.569 27.1035 208.84 27.234C210.665 28.1132 207.039 29.0766 205.026 29.2972C203.683 29.4443 202.534 29.4835 201.209 29.4028C198.311 29.2264 193.779 28.7171 193.779 25.8131V25.8131C193.779 24.7945 198.872 5.44221 198.872 5.44221C204.841 8.24128 207.453 8.94332 214.15 9.51573C212.512 31.4618 205.398 52.8132 196.327 52.6448ZM196.327 52.6448V52.6448C191.118 52.2225 190.335 45.6056 190.264 40.3798C190.101 28.3359 192.675 18.8101 196.835 3.40513C204.653 3.28289 208.879 4.24801 216.187 7.4793C218.055 26.9159 225.643 46.0321 235.54 50.2581" stroke="black" stroke-width="0.7"/>
<path d="M235.54 50.2572C236.558 50.2572 234.521 48.2202 234.521 48.2201C234.521 48.2201 234.521 48.2201 234.521 48.2201V48.2201C227.867 41.5662 223.194 33.1733 221.365 23.9427C220.141 17.7652 218.862 10.7331 218.225 5.44102C218.234 3.866 230.098 -0.241543 235.54 1.36684C238.801 10.4339 243.688 25.8122 240.633 24.7936C237.577 23.7751 224.343 22.7778 224.336 24.7936C231.043 31.1379 240.285 24.8686 242.67 25.8122C245.054 26.7557 245.725 45.1645 242.67 49.2387C242.375 49.631 242.79 50.1743 242.67 50.8406M242.67 50.8406C241.544 57.0941 247.09 75.7603 247.762 78.7764C248.435 81.7925 259.525 80.2449 259.985 82.8506C260.445 85.4563 233.414 90.5018 235.54 88.9619C237.445 87.5817 244.204 81.8301 244.775 80.1871C244.866 79.924 244.671 79.6407 244.608 79.3693L238.685 53.7024C238.628 53.4523 238.664 53.1864 238.813 52.9771C239.704 51.7218 241.001 51.2397 242.67 50.8406ZM242.67 50.8406C244.18 50.0065 243.823 45.5296 245.321 47.2016C246.818 48.8736 286.861 61.4032 311.931 47.2016C332.555 35.5179 357.284 43.6328 386.49 49.8082C399.295 52.5156 412.297 50.7762 425.068 47.9105C431.297 46.5126 437.85 45.8492 445 47.2016" stroke="black" stroke-width="0.7"/>
</svg>
