<svg width="660" height="97" viewBox="0 0 660 97" fill="none" xmlns="http://www.w3.org/2000/svg">
<path d="M659 69.0432C636 65.0433 650.11 61.1691 640 51.5432C633.4 46.7869 630.436 47.7793 626.919 52.5024C625.945 53.8102 625.416 55.4005 625.265 57.0242C623.05 80.8835 623.758 87.3164 626.527 88.4285C627.752 88.9205 629.374 88.9495 630.349 88.0595C634.481 84.2874 633.497 61.5048 632 34.0432C632 19.8974 632.644 3.20494 630.649 1.20007C630.324 0.874175 629.872 1.26366 629.645 1.66379C624.213 11.2585 622.213 19.1862 620.739 30.2885C619.803 37.3404 620.063 45.9649 627 47.5432V47.5432C631.664 48.6046 631.497 44.603 630.552 43.3849C630.284 43.0404 629.817 43.185 629.478 43.4588C626.779 45.6364 618.297 52.6737 611.694 53.9411C608.598 54.5355 605.356 53.5585 602.203 53.5685C594.292 53.5937 588.304 53.6559 583.995 55.818C580.961 57.3404 578.884 61.0045 580.118 64.167C581.316 67.2399 585.191 66.0456 588.826 63.7091C589.967 62.9758 590.971 62.0402 591.815 60.9785C594.571 57.5097 596.034 54.3107 596.335 51.0688C597.48 38.7277 584.427 27.2393 572.059 28.0365C571.864 28.0491 571.669 28.065 571.475 28.0843C557.779 29.4409 546.124 44.5333 548.921 58.0093C549.003 58.4038 549.099 58.7969 549.208 59.1893C551.841 68.601 560.938 75.1835 570.433 77.5C571.438 77.7453 572.399 77.9202 573.323 78.0302C590.123 80.03 604.371 59.2438 601.14 42.6363C600.771 40.7416 600.141 38.9307 599.237 37.1532C595.081 28.9807 586.566 23.7732 577.744 21.2802C572.888 19.9081 568.419 19.6571 563.7 20.9155C551.307 24.2202 542.436 35.9539 539.737 48.4925C538.934 52.2219 538.82 55.4717 539.235 58.4467C541.685 76.0276 560.195 89.8163 577.929 89.0613C580.771 88.9404 583.344 88.3969 585.795 87.5132C598.089 83.0812 607.25 71.6777 610.592 59.0444C611.802 54.4713 612.023 50.4987 611.606 46.6358C610.344 34.9694 604.014 23.9499 594.682 16.8359C589.869 13.1662 584.989 11.1609 579.037 10.3558C571.757 9.37119 564.289 10.7168 557.557 13.6589C548.613 17.5681 543.807 22.4443 539.12 29.29C535.888 34.0115 533.446 39.2242 531.351 44.5489C526.723 56.3114 523.37 64.3533 518.5 69.0432C513.543 71.9354 512.612 71.0971 512.5 67.5432V41.0432C512.908 34.6814 512.438 32.9776 511 31.5432C509.416 30.1858 509.154 28.9606 509 26.5432V4.46843C509 3.52308 509.083 2.56096 509.46 1.69409C509.839 0.823473 510.154 0.824806 510.532 1.68283C510.916 2.55656 511 3.52797 511 4.48265V17.7158C511 18.2665 511.033 18.8206 511.164 19.3554C511.636 21.2731 512.364 21.2733 512.835 19.3563C512.967 18.8214 513 18.2671 513 17.7163V4.0339C513 3.37527 513.048 2.71303 513.221 2.07749C513.537 0.917765 513.827 0.852413 514.184 1.90403C514.436 2.64762 514.5 3.44 514.5 4.22531V17.2049C514.5 18.0932 514.59 18.9887 514.894 19.8231C515.394 21.1903 515.741 21.0082 516.151 19.7677C516.416 18.9657 516.5 18.1158 516.5 17.2712V4.04338C516.5 3.37828 516.546 2.70896 516.732 2.07058C517.078 0.887956 517.425 0.879446 517.772 2.07881C517.955 2.71162 518 3.37501 518 4.03371V17.7342C518 18.6032 518.049 19.4942 518.393 20.2923C518.663 20.9182 518.904 20.8379 519.224 19.6941C519.436 18.9371 519.49 18.1443 519.47 17.3584C519.209 7.2138 519.055 1.04345 520.5 1.04321C521.787 1.04301 522.333 21.5839 521.205 28.4255C520.961 29.9018 520.13 31.2298 519.565 32.6154C518.354 35.588 518.061 37.8817 518 41.5432C517.373 44.6532 519.093 60.0912 520.616 71.0432C520.933 82.1036 520.08 91.6616 516 90.0432C507.893 86.8273 510.411 73.9435 517.059 71.8354C518.1 71.5052 519.028 72.4264 518.854 73.5049C517.961 79.0212 512.811 83.9627 498.5 79.0432C482.5 73.5432 480.5 108 455 91C432.758 76.1717 402.146 84.5485 394.688 86.9308C393.552 87.2936 392.436 87.6862 391.303 88.0574C388.339 89.0286 382.485 90.9346 382 91" stroke="black" stroke-width="0.7"/>
<path d="M310.914 5.88208C310.914 5.88208 310.899 7.90154 311.424 9.19649C312.599 12.0928 314.382 15.1567 317.798 16.3352C318.269 16.4976 318.589 16.4528 319.073 16.3352C321.233 15.8103 320.624 10.153 320.858 10.2163C319.577 13.2743 316.685 10.8946 316.778 10.2163M325.447 10.7262L322.897 16.0803M322.897 16.0803L320.134 15.3604M322.897 16.0803L326.467 16.8451M326.467 16.8451L329.016 11.746M326.467 16.8451C326.61 22.8677 328.025 25.9727 331.566 30.3577" stroke="black" stroke-width="0.7"/>
<path d="M316.013 18.8847C314.406 20.5572 313.635 20.9001 311.934 20.6694M311.934 20.6694C310.793 21.2299 310.118 21.4363 308.875 21.6892M311.934 20.6694C312.478 19.3459 312.22 18.8404 310.149 18.6298H309.839M308.875 21.6892C310.188 22.7006 310.551 23.2562 310.404 24.2388C307.49 23.6744 305.654 22.9113 304.54 20.4145C303.809 18.7752 303.846 17.5657 304.285 15.8253C304.703 14.1695 305.344 13.0537 306.51 12.0603C306.554 12.0225 306.613 12.0063 306.67 12.0169C307.63 12.196 308.035 12.5899 308.11 13.5307C307.335 16.5333 307.931 17.4968 309.839 18.6298M308.875 21.6892C307.95 20.1801 308.335 19.5521 309.839 18.6298" stroke="black" stroke-width="0.7"/>
<path d="M331.821 31.8842C331.821 25.5137 324.427 12.766 331.821 13.5275" stroke="black" stroke-width="0.7"/>
<path d="M321.877 43.8705C323.472 44.016 323.994 43.9558 324.865 43.8927C325.014 43.8819 325.101 43.7177 325.024 43.5891L319.583 34.437C318.516 32.4875 320.164 30.3957 319.583 30.3579C318.246 30.2711 316.98 30.6715 317.033 32.6525C318.161 37.5017 319.341 39.8843 321.877 43.8705ZM321.877 43.8705C318.34 41.8027 315.677 38.5187 310.688 30.151C310.67 30.12 310.659 30.0838 310.659 30.0478V24.4939M310.659 24.4939H317.382C317.55 24.4939 317.643 24.2999 317.538 24.1689L315.759 21.9443C315.275 19.5943 315.629 18.4518 317.798 16.8452M310.659 24.4939C309.282 26.8705 308.272 27.7934 305.815 28.3182C304.031 28.0632 303.23 26.0155 304.286 24.7488C305.341 23.4822 306.58 24.7488 306.58 24.7488C304.48 23.0258 303.31 22.0544 302.501 19.3948C301.906 15.8307 302.692 14.2282 305.815 12.0011C308.704 11.7241 310.783 12.1108 313.464 13.0208" stroke="black" stroke-width="0.7"/>
<path d="M322.387 16.0806L322.817 24.8855C322.853 25.6357 322.081 26.1569 321.399 25.8422L320.842 25.5852C320.632 25.4884 320.453 25.7652 320.627 25.9173L327.741 32.1427" stroke="black" stroke-width="0.7"/>
<path d="M331.565 13.5305C336.803 15.24 338.716 18.3853 338.194 32.3971C337.482 34.5569 336.733 35.1397 335.135 35.7115C329.794 35.6665 326.309 36.2135 321.367 35.2016C319.158 34.0602 319.47 32.8215 320.347 32.3971C321.225 31.9728 334.115 32.1422 334.115 32.1422" stroke="black" stroke-width="0.7"/>
<path d="M324.172 9.96116H320.838C319.163 7.36722 317.193 9.73166 316.994 10.2161C316.795 10.7006 316.773 9.50717 316.445 9.19629C315.817 8.60279 314.867 9.54329 314.248 8.94134C313.859 8.56349 314.103 8.0278 313.699 7.66657C313.059 7.09493 312.756 8.34983 312.012 7.92172C311.228 7.47021 310.659 6.13703 310.914 5.88208" stroke="black" stroke-width="0.7"/>
<path d="M382 91C382 91 345.627 95.8004 345.843 71.6604C346.534 62.4672 347.2 56.2067 348.802 44.4263C349.033 42.7257 348.832 41.0016 348.185 39.412C345.736 33.3965 339.285 18.048 336.155 15.3155C332.245 11.9019 328.053 11.5439 324.427 10.2164C322.992 6.18197 324.057 4.09661 320.603 2.05788C315.854 1.7444 313.775 2.66058 310.914 5.88221" stroke="black" stroke-width="0.7"/>
<path d="M249 86.5C249 86.5 278 90.518 298.941 88.2234C312.634 85.5107 321.053 86.1543 335.135 87.7234C337.245 88.6926 337.443 89.1925 336.41 90.018C326.526 91.7724 349.646 59.0773 328.251 38.0073M327.231 37.2424C332.45 38.1103 318.004 56.6444 310.659 66.3065C303.314 75.9686 301.254 80.5984 299.441 90.018C297.245 80.6553 301.105 74.5617 310.659 63.247C322.07 50.1239 326.19 44.1528 327.231 38.0073V37.2424Z" stroke="black" stroke-width="0.7"/>
<path d="M0.5 49.221C33.5328 42.1868 41.3715 57.3694 49.5199 57.3694C57.6682 57.3694 61.7424 55.3323 61.7424 57.3694C61.7424 59.4065 57.4511 72.5368 54.6126 79.7773C53.0361 82.568 51.8525 82.9706 49.5199 82.833C49.5199 82.833 43.9815 82.833 42.3901 82.833C40.7986 82.833 40.4835 83.9098 42.4554 84.8992C44.2239 85.7866 52.0465 89.796 61.4865 91.5086C63.6766 91.906 69.8402 92.3357 67.8537 91.3314V91.3314C67.1852 90.9935 58.6868 86.9071 58.6868 81.8144C58.6868 78.1058 62.4677 66.8355 64.5229 60.9831C65.3716 58.5664 66.9451 56.1306 66.3271 53.6448V53.6448M66.3271 53.6448C66.2109 53.1775 66.0331 52.7254 65.8166 52.2767C62.9041 45.2769 62.4362 40.8017 62.717 33.0171C62.7434 32.2841 62.9537 31.4142 63.3141 30.7753V30.7753C65.1992 27.4332 69.6765 26.8023 73.5105 26.9546C75.6754 27.0407 77.487 27.5028 78.0391 27.8316C78.2761 27.9728 78.569 28.1035 78.8399 28.234C80.6649 29.1132 77.0393 30.0766 75.0257 30.2972C73.6831 30.4443 72.5336 30.4835 71.2093 30.4028C68.3106 30.2264 63.7795 29.7171 63.7795 26.8131V26.8131C63.7795 25.7945 68.8722 6.44221 68.8722 6.44221C74.8405 9.24128 77.4528 9.94332 84.1504 10.5157C82.5122 32.4618 75.3984 53.8132 66.3271 53.6448ZM66.3271 53.6448V53.6448C61.1179 53.2225 60.335 46.6056 60.2642 41.3798C60.1012 29.3359 62.6748 19.8101 66.8351 4.40513C74.653 4.28289 78.8795 5.24801 86.1874 8.4793C88.0552 27.9159 95.643 47.0321 105.54 51.2581" stroke="black" stroke-width="0.7"/>
<path d="M105.54 51.2572C106.558 51.2572 104.521 49.2202 104.521 49.2201C104.521 49.2201 104.521 49.2201 104.521 49.2201V49.2201C97.8674 42.5662 93.1944 34.1733 91.3651 24.9427C90.1409 18.7652 88.8617 11.7331 88.2246 6.44102C88.2339 4.866 100.098 0.758457 105.54 2.36684C108.801 11.4339 113.688 26.8122 110.633 25.7936C107.577 24.7751 94.3434 23.7778 94.3359 25.7936C101.043 32.1379 110.285 25.8686 112.67 26.8122C115.054 27.7557 115.725 46.1645 112.67 50.2387C112.375 50.631 112.79 51.1743 112.67 51.8406M112.67 51.8406C111.544 58.0941 117.09 76.7603 117.762 79.7764C118.435 82.7925 129.525 81.2449 129.985 83.8506C130.445 86.4563 103.414 91.5018 105.54 89.9619C107.445 88.5817 114.204 82.8301 114.775 81.1871C114.866 80.924 114.671 80.6407 114.608 80.3693L108.685 54.7024C108.628 54.4523 108.664 54.1864 108.813 53.9771C109.704 52.7218 111.001 52.2397 112.67 51.8406ZM112.67 51.8406C114.18 51.0065 113.823 46.5296 115.321 48.2016C116.701 49.7427 159.866 97.5908 191.282 84.4973C196.849 82.1771 201.524 77.7579 207.433 76.5528C218.021 74.3937 229.789 78.7243 249 86.5" stroke="black" stroke-width="0.7"/>
</svg>
