<svg width="430" height="108" viewBox="0 0 430 108" fill="none" xmlns="http://www.w3.org/2000/svg">
<path d="M204.414 4.88208C204.414 4.88208 204.399 6.90154 204.924 8.19649C206.099 11.0928 207.882 14.1567 211.298 15.3352C211.769 15.4976 212.089 15.4528 212.573 15.3352C214.733 14.8103 214.124 9.153 214.358 9.2163C213.077 12.2743 210.185 9.89464 210.278 9.2163M218.947 9.72621L216.397 15.0803M216.397 15.0803L213.634 14.3604M216.397 15.0803L219.967 15.8451M219.967 15.8451L222.516 10.746M219.967 15.8451C220.11 21.8677 221.525 24.9727 225.066 29.3577" stroke="black" stroke-width="0.7"/>
<path d="M209.513 17.8847C207.906 19.5572 207.135 19.9001 205.434 19.6694M205.434 19.6694C204.293 20.2299 203.618 20.4363 202.375 20.6892M205.434 19.6694C205.978 18.3459 205.72 17.8404 203.649 17.6298H203.339M202.375 20.6892C203.688 21.7006 204.051 22.2562 203.904 23.2388C200.99 22.6744 199.154 21.9113 198.04 19.4145C197.309 17.7752 197.346 16.5657 197.785 14.8253C198.203 13.1695 198.844 12.0537 200.01 11.0603C200.054 11.0225 200.113 11.0063 200.17 11.0169C201.13 11.196 201.535 11.5899 201.61 12.5307C200.835 15.5333 201.431 16.4968 203.339 17.6298M202.375 20.6892C201.45 19.1801 201.835 18.5521 203.339 17.6298" stroke="black" stroke-width="0.7"/>
<path d="M225.321 30.8842C225.321 24.5137 217.927 11.766 225.321 12.5275" stroke="black" stroke-width="0.7"/>
<path d="M215.377 42.8705C216.972 43.016 217.494 42.9558 218.365 42.8927C218.514 42.8819 218.601 42.7177 218.524 42.5891L213.083 33.437C212.016 31.4875 213.664 29.3957 213.083 29.3579C211.746 29.2711 210.48 29.6715 210.533 31.6525C211.661 36.5017 212.841 38.8843 215.377 42.8705ZM215.377 42.8705C211.84 40.8027 209.177 37.5187 204.188 29.151C204.17 29.12 204.159 29.0838 204.159 29.0478V23.4939M204.159 23.4939H210.882C211.05 23.4939 211.143 23.2999 211.038 23.1689L209.259 20.9443C208.775 18.5943 209.129 17.4518 211.298 15.8452M204.159 23.4939C202.782 25.8705 201.772 26.7934 199.315 27.3182C197.531 27.0632 196.73 25.0155 197.786 23.7488C198.841 22.4822 200.08 23.7488 200.08 23.7488C197.98 22.0258 196.81 21.0544 196.001 18.3948C195.406 14.8307 196.192 13.2282 199.315 11.0011C202.204 10.7241 204.283 11.1108 206.964 12.0208" stroke="black" stroke-width="0.7"/>
<path d="M215.887 15.0806L216.317 23.8855C216.353 24.6357 215.581 25.1569 214.899 24.8422L214.342 24.5852C214.132 24.4884 213.953 24.7652 214.127 24.9173L221.241 31.1427" stroke="black" stroke-width="0.7"/>
<path d="M225.066 12.5305C230.304 14.24 232.216 17.3853 231.694 31.3971C230.982 33.5569 230.233 34.1397 228.635 34.7115C223.294 34.6665 219.809 35.2135 214.867 34.2016C212.659 33.0602 212.97 31.8215 213.848 31.3971C214.725 30.9728 227.615 31.1422 227.615 31.1422" stroke="black" stroke-width="0.7"/>
<path d="M217.672 8.96116H214.338C212.663 6.36722 210.693 8.73166 210.494 9.21611C210.295 9.70056 210.273 8.50717 209.945 8.19629C209.317 7.60279 208.367 8.54329 207.748 7.94134C207.36 7.56349 207.603 7.0278 207.199 6.66657C206.56 6.09493 206.256 7.34983 205.513 6.92172C204.729 6.47021 204.159 5.13703 204.414 4.88208" stroke="black" stroke-width="0.7"/>
<path d="M204.414 4.88221C207.275 1.66058 209.354 0.744396 214.103 1.05788C217.557 3.09661 216.492 5.18197 217.927 9.21641C221.553 10.5439 225.745 10.9019 229.655 14.3155C232.785 17.048 239.236 32.3965 241.685 38.412C242.332 40.0016 242.533 41.7257 242.302 43.4263C240.7 55.2067 240.034 61.4672 239.343 70.6604C239.127 94.8004 249.838 97.9568 273.507 99.2153C318.623 93.7232 341.003 87 389.001 101C437 115 430.196 101.177 451 93" stroke="black" stroke-width="0.7"/>
<path d="M221.751 37.0073C243.146 58.0773 220.026 90.7724 229.91 89.018C230.943 88.1925 230.745 87.6926 228.635 86.7234C214.553 85.1543 206.634 84.0107 192.941 86.7234C173.653 88.8333 161.923 91.5776 143.5 95.1369C125.077 98.6961 -16.932 94.722 -17 95.1369M220.731 36.2424C225.95 37.1103 211.504 55.6444 204.159 65.3065C196.814 74.9686 194.754 79.5984 192.941 89.018C190.745 79.6553 194.605 73.5617 204.159 62.247C215.571 49.1239 219.69 43.1528 220.731 37.0073V36.2424Z" stroke="black" stroke-width="0.7"/>
</svg>
