<svg width="70" height="208" viewBox="0 0 70 208" fill="none" xmlns="http://www.w3.org/2000/svg">
<path d="M29.9237 25.7961C16.1107 45.8903 22.0422 60.7185 29.5425 70.618C37.0429 80.5176 37.7878 81.4998 37.7878 93.5" stroke="black" stroke-width="0.7"/>
<path d="M31.7115 116C17.8985 136.094 23.83 150.922 31.3303 160.822C38.8306 170.721 39.5756 171.704 39.5756 183.704" stroke="black" stroke-width="0.7"/>
<path d="M26.8224 22.3326C24.5561 20.4029 22.1268 18.2712 20.1662 16.1378C15.3738 10.9231 20.6268 5.7223 25.235 11.1004C25.3827 11.2727 25.5329 11.449 25.6858 11.6291C27.5953 4.45265 29.5591 0.686521 33.1687 1.02044C36.7784 1.35437 36.4787 7.09259 35.3473 12.7658C34.3431 16.6525 33.4935 18.7242 31.7479 22.3326" stroke="black" stroke-width="0.7"/>
<path d="M27.8644 23.564C22.9327 21.1934 19.1175 18.7583 16.7108 16.1737C13.1321 12.3305 17.0752 6.46673 21.2221 9.68865C22.5859 10.7482 24.0668 12.1128 25.7805 13.5237C28.6174 7.2356 30.325 4.13197 35.2526 5.37768C40.1146 8.26627 38.1417 12.7978 35.2526 18.165C32.3635 23.5321 29.3677 26.1009 29.5693 26.5004" stroke="black" stroke-width="0.7"/>
<path d="M28.8224 112.333C26.5561 110.403 24.1268 108.271 22.1662 106.138C17.3738 100.923 22.6268 95.7223 27.235 101.1C27.3827 101.273 27.5329 101.449 27.6858 101.629C29.5953 94.4527 31.5591 90.6865 35.1687 91.0204C38.7784 91.3544 38.4787 97.0926 37.3473 102.766C36.3431 106.652 35.4935 108.724 33.7479 112.333" stroke="black" stroke-width="0.7"/>
<path d="M29.8644 113.564C24.9327 111.193 21.1175 108.758 18.7108 106.174C15.1321 102.33 19.0752 96.4667 23.2221 99.6887C24.5859 100.748 26.0668 102.113 27.7805 103.524C30.6174 97.2356 32.325 94.132 37.2526 95.3777C42.1146 98.2663 40.1417 102.798 37.2526 108.165C34.3635 113.532 31.3677 116.101 31.5693 116.5" stroke="black" stroke-width="0.7"/>
<path d="M30.8224 203.333C28.5561 201.403 26.1268 199.271 24.1662 197.138C19.3738 191.923 24.6268 186.722 29.235 192.1C29.3827 192.273 29.5329 192.449 29.6858 192.629C31.5953 185.453 33.5591 181.687 37.1687 182.02C40.7784 182.354 40.4787 188.093 39.3473 193.766C38.3431 197.652 37.4935 199.724 35.7479 203.333" stroke="black" stroke-width="0.7"/>
<path d="M31.8644 204.564C26.9327 202.193 23.1175 199.758 20.7108 197.174C17.1321 193.33 21.0752 187.467 25.2221 190.689C26.5859 191.748 28.0668 193.113 29.7805 194.524C32.6174 188.236 34.325 185.132 39.2526 186.378C44.1146 189.266 42.1417 193.798 39.2526 199.165C36.3635 204.532 33.3677 207.101 33.5693 207.5" stroke="black" stroke-width="0.7"/>
</svg>
