<svg width="771" height="97" viewBox="0 0 771 97" fill="none" xmlns="http://www.w3.org/2000/svg">
<path d="M770 77C747 73 749.61 61.1691 739.5 51.5432C732.9 46.7869 729.936 47.7793 726.419 52.5024C725.444 53.8102 724.916 55.4005 724.765 57.0242C722.55 80.8835 723.258 87.3164 726.027 88.4285C727.252 88.9205 728.874 88.9495 729.849 88.0595C733.981 84.2874 732.997 61.5048 731.5 34.0432C731.5 19.8974 732.144 3.20494 730.148 1.20007C729.824 0.874175 729.372 1.26366 729.145 1.66379C723.713 11.2585 721.713 19.1862 720.239 30.2885C719.303 37.3404 719.563 45.9649 726.5 47.5432V47.5432C731.164 48.6046 730.997 44.603 730.052 43.3849C729.784 43.0404 729.317 43.185 728.978 43.4588C726.279 45.6364 717.797 52.6737 711.194 53.9411C708.098 54.5355 704.856 53.5585 701.703 53.5685C693.792 53.5937 687.804 53.6559 683.495 55.818C680.461 57.3404 678.384 61.0045 679.618 64.167C680.816 67.2399 684.691 66.0456 688.326 63.7091C689.467 62.9758 690.471 62.0402 691.315 60.9785C694.071 57.5097 695.534 54.3107 695.835 51.0688C696.98 38.7277 683.927 27.2393 671.559 28.0365C671.364 28.0491 671.169 28.065 670.975 28.0843C657.279 29.4409 645.624 44.5333 648.421 58.0093C648.503 58.4038 648.599 58.7969 648.708 59.1893C651.341 68.601 660.438 75.1835 669.933 77.5C670.938 77.7453 671.899 77.9202 672.823 78.0302C689.623 80.03 703.871 59.2438 700.64 42.6363C700.271 40.7416 699.641 38.9307 698.737 37.1532C694.581 28.9807 686.066 23.7732 677.243 21.2802C672.388 19.9081 667.919 19.6571 663.2 20.9155C650.807 24.2202 641.936 35.9539 639.237 48.4925C638.434 52.2219 638.32 55.4717 638.735 58.4467C641.185 76.0276 659.695 89.8163 677.429 89.0613C680.271 88.9404 682.844 88.3969 685.295 87.5132C697.589 83.0812 706.75 71.6777 710.092 59.0444C711.302 54.4713 711.523 50.4987 711.106 46.6358C709.844 34.9694 703.514 23.9499 694.182 16.8359C689.369 13.1662 684.489 11.1609 678.537 10.3558C671.257 9.37119 663.789 10.7168 657.057 13.6589C648.113 17.5681 643.307 22.4443 638.62 29.29C635.388 34.0115 632.946 39.2242 630.851 44.5489C626.223 56.3114 622.87 64.3533 618 69.0432C613.043 71.9354 612.112 71.0971 612 67.5432V41.0432C612.408 34.6814 611.938 32.9776 610.5 31.5432C608.916 30.1858 608.654 28.9606 608.5 26.5432V4.46843C608.5 3.52308 608.583 2.56096 608.96 1.69409C609.339 0.823473 609.654 0.824806 610.032 1.68283C610.416 2.55656 610.5 3.52797 610.5 4.48265V17.7158C610.5 18.2665 610.533 18.8206 610.664 19.3554C611.136 21.2731 611.864 21.2733 612.335 19.3563C612.467 18.8214 612.5 18.2671 612.5 17.7163V4.0339C612.5 3.37527 612.548 2.71303 612.721 2.07749C613.037 0.917765 613.327 0.852413 613.684 1.90403C613.936 2.64762 614 3.44 614 4.22531V17.2049C614 18.0932 614.09 18.9887 614.394 19.8231C614.894 21.1903 615.241 21.0082 615.651 19.7677C615.916 18.9657 616 18.1158 616 17.2712V4.04338C616 3.37828 616.046 2.70896 616.232 2.07058C616.578 0.887956 616.925 0.879446 617.272 2.07881C617.455 2.71162 617.5 3.37501 617.5 4.03371V17.7342C617.5 18.6032 617.549 19.4942 617.893 20.2923C618.163 20.9182 618.404 20.8379 618.724 19.6941C618.936 18.9371 618.99 18.1443 618.97 17.3584C618.709 7.2138 618.555 1.04345 620 1.04321C621.287 1.04301 621.833 21.5839 620.704 28.4255C620.461 29.9018 619.63 31.2298 619.065 32.6154C617.854 35.588 617.56 37.8817 617.5 41.5432C616.873 44.6532 618.593 60.0912 620.116 71.0432C620.433 82.1036 619.58 91.6616 615.5 90.0432C607.393 86.8273 609.911 73.9435 616.559 71.8354C617.6 71.5052 618.528 72.4264 618.354 73.5049C617.461 79.0212 612.311 83.9627 598 79.0432C582 73.5432 580 108 554.5 91C531.626 75.7508 499.901 85.0428 493.609 87.1185C492.854 87.3677 492.128 87.6278 491.375 87.8847C488.752 88.7795 482.415 90.9304 481.9 91" stroke="black" stroke-width="0.7"/>
<path d="M364.414 5.88208C364.414 5.88208 364.399 7.90154 364.924 9.19649C366.099 12.0928 367.882 15.1567 371.298 16.3352C371.769 16.4976 372.089 16.4528 372.573 16.3352C374.733 15.8103 374.124 10.153 374.358 10.2163C373.077 13.2743 370.185 10.8946 370.278 10.2163M378.947 10.7262L376.397 16.0803M376.397 16.0803L373.634 15.3604M376.397 16.0803L379.967 16.8451M379.967 16.8451L382.516 11.746M379.967 16.8451C380.11 22.8677 381.525 25.9727 385.066 30.3577" stroke="black" stroke-width="0.7"/>
<path d="M369.513 18.8847C367.906 20.5572 367.135 20.9001 365.434 20.6694M365.434 20.6694C364.293 21.2299 363.618 21.4363 362.375 21.6892M365.434 20.6694C365.978 19.3459 365.72 18.8404 363.649 18.6298H363.339M362.375 21.6892C363.688 22.7006 364.051 23.2562 363.904 24.2388C360.99 23.6744 359.154 22.9113 358.04 20.4145C357.309 18.7752 357.346 17.5657 357.785 15.8253C358.203 14.1695 358.844 13.0537 360.01 12.0603C360.054 12.0225 360.113 12.0063 360.17 12.0169C361.13 12.196 361.535 12.5899 361.61 13.5307C360.835 16.5333 361.431 17.4968 363.339 18.6298M362.375 21.6892C361.45 20.1801 361.835 19.5521 363.339 18.6298" stroke="black" stroke-width="0.7"/>
<path d="M385.321 31.8842C385.321 25.5137 377.927 12.766 385.321 13.5275" stroke="black" stroke-width="0.7"/>
<path d="M375.377 43.8705C376.972 44.016 377.494 43.9558 378.365 43.8927C378.514 43.8819 378.601 43.7177 378.524 43.5891L373.083 34.437C372.016 32.4875 373.664 30.3957 373.083 30.3579C371.746 30.2711 370.48 30.6715 370.533 32.6525C371.661 37.5017 372.841 39.8843 375.377 43.8705ZM375.377 43.8705C371.84 41.8027 369.177 38.5187 364.188 30.151C364.17 30.12 364.159 30.0838 364.159 30.0478V24.4939M364.159 24.4939H370.882C371.05 24.4939 371.143 24.2999 371.038 24.1689L369.259 21.9443C368.775 19.5943 369.129 18.4518 371.298 16.8452M364.159 24.4939C362.782 26.8705 361.772 27.7934 359.315 28.3182C357.531 28.0632 356.73 26.0155 357.786 24.7488C358.841 23.4822 360.08 24.7488 360.08 24.7488C357.98 23.0258 356.81 22.0544 356.001 19.3948C355.406 15.8307 356.192 14.2282 359.315 12.0011C362.204 11.7241 364.283 12.1108 366.964 13.0208" stroke="black" stroke-width="0.7"/>
<path d="M375.887 16.0806L376.317 24.8855C376.353 25.6357 375.581 26.1569 374.899 25.8422L374.342 25.5852C374.132 25.4884 373.953 25.7652 374.127 25.9173L381.241 32.1427" stroke="black" stroke-width="0.7"/>
<path d="M385.065 13.5305C390.303 15.24 392.216 18.3853 391.694 32.3971C390.982 34.5569 390.233 35.1397 388.635 35.7115C383.294 35.6665 379.809 36.2135 374.867 35.2016C372.658 34.0602 372.97 32.8215 373.847 32.3971C374.725 31.9728 387.615 32.1422 387.615 32.1422" stroke="black" stroke-width="0.7"/>
<path d="M377.672 9.96116H374.338C372.663 7.36722 370.693 9.73166 370.494 10.2161C370.295 10.7006 370.273 9.50717 369.945 9.19629C369.317 8.60279 368.367 9.54329 367.748 8.94134C367.359 8.56349 367.603 8.0278 367.199 7.66657C366.559 7.09493 366.256 8.34983 365.512 7.92172C364.728 7.47021 364.159 6.13703 364.414 5.88208" stroke="black" stroke-width="0.7"/>
<path d="M364.414 5.88221C367.275 2.66058 369.354 1.7444 374.103 2.05788C377.557 4.09661 376.492 6.18197 377.927 10.2164C381.553 11.5439 385.745 11.9019 389.655 15.3155C392.785 18.048 399.236 33.3965 401.685 39.412C402.332 41.0016 402.533 42.7257 402.302 44.4263C400.7 56.2067 400.034 62.4672 399.343 71.6604C399.207 86.8438 413.546 90.5782 424.205 91.2591C431.709 91.7386 439.065 89.1503 446.583 88.9968C459.219 88.7388 471.545 94.0976 482 91" stroke="black" stroke-width="0.7"/>
<path d="M302.5 86.5C302.5 86.5 331.5 90.518 352.441 88.2234C366.134 85.5107 374.553 86.1543 388.635 87.7234C390.745 88.6926 390.943 89.1925 389.91 90.018C380.026 91.7724 403.146 59.0773 381.751 38.0073M380.731 37.2424C385.95 38.1103 371.504 56.6444 364.159 66.3065C356.814 75.9686 354.754 80.5984 352.941 90.018C350.745 80.6553 354.605 74.5617 364.159 63.247C375.57 50.1239 379.69 44.1528 380.731 38.0073V37.2424Z" stroke="black" stroke-width="0.7"/>
<path d="M0.5 45.5C33.5328 38.4657 52.8715 57.3694 61.0199 57.3694C69.1682 57.3694 73.2424 55.3323 73.2424 57.3694C73.2424 59.4065 68.9511 72.5368 66.1126 79.7773C64.5361 82.568 63.3525 82.9706 61.0199 82.833C61.0199 82.833 55.4815 82.833 53.8901 82.833C52.2986 82.833 51.9835 83.9098 53.9554 84.8992C55.7239 85.7866 63.5465 89.796 72.9865 91.5086C75.1766 91.906 81.3402 92.3357 79.3537 91.3314V91.3314C78.6852 90.9935 70.1868 86.9071 70.1868 81.8144C70.1868 78.1058 73.9677 66.8355 76.0229 60.9831C76.8716 58.5664 78.4451 56.1306 77.8271 53.6448V53.6448M77.8271 53.6448C77.7109 53.1775 77.5331 52.7254 77.3166 52.2767C74.4041 45.2769 73.9362 40.8017 74.217 33.0171C74.2434 32.2841 74.4537 31.4142 74.8141 30.7753V30.7753C76.6992 27.4332 81.1765 26.8023 85.0105 26.9546C87.1754 27.0407 88.987 27.5028 89.5391 27.8316C89.7761 27.9728 90.069 28.1035 90.3399 28.234C92.1649 29.1132 88.5393 30.0766 86.5257 30.2972C85.1831 30.4443 84.0336 30.4835 82.7093 30.4028C79.8106 30.2264 75.2795 29.7171 75.2795 26.8131V26.8131C75.2795 25.7945 80.3722 6.44221 80.3722 6.44221C86.3405 9.24128 88.9528 9.94332 95.6504 10.5157C94.0122 32.4618 86.8984 53.8132 77.8271 53.6448ZM77.8271 53.6448V53.6448C72.6179 53.2225 71.835 46.6056 71.7642 41.3798C71.6012 29.3359 74.1748 19.8101 78.3351 4.40513C86.153 4.28289 90.3795 5.24801 97.6874 8.4793C99.5552 27.9159 107.143 47.0321 117.04 51.2581" stroke="black" stroke-width="0.7"/>
<path d="M117.04 51.2572C118.058 51.2572 116.021 49.2202 116.021 49.2201C116.021 49.2201 116.021 49.2201 116.021 49.2201V49.2201C109.367 42.5662 104.694 34.1733 102.865 24.9427C101.641 18.7652 100.362 11.7331 99.7246 6.44102C99.7339 4.866 111.598 0.758457 117.04 2.36684C120.301 11.4339 125.188 26.8122 122.133 25.7936C119.077 24.7751 105.843 23.7778 105.836 25.7936C112.543 32.1379 121.785 25.8686 124.17 26.8122C126.554 27.7557 127.225 46.1645 124.17 50.2387C123.875 50.631 124.29 51.1743 124.17 51.8406M124.17 51.8406C123.044 58.0941 128.59 76.7603 129.262 79.7764C129.935 82.7925 141.025 81.2449 141.485 83.8506C141.945 86.4563 114.914 91.5018 117.04 89.9619C118.945 88.5817 125.704 82.8301 126.275 81.1871C126.366 80.924 126.171 80.6407 126.108 80.3693L120.185 54.7024C120.128 54.4523 120.164 54.1864 120.313 53.9771C121.204 52.7218 122.501 52.2397 124.17 51.8406ZM124.17 51.8406C125.68 51.0065 125.323 46.5296 126.821 48.2016C128.201 49.7427 171.366 97.5908 202.782 84.4973C208.349 82.1771 213.284 77.4974 219.27 78.2356C230.762 79.6527 244.318 91.2361 260.5 86.5C281 80.5 285.717 85.086 302.5 86.5" stroke="black" stroke-width="0.7"/>
</svg>
