<svg width="29" height="208" viewBox="0 0 29 208" fill="none" xmlns="http://www.w3.org/2000/svg">
<path fill-rule="evenodd" clip-rule="evenodd" d="M15.0822 3.70062C13.935 5.44631 12.9781 8.13357 12.0241 11.7192L11.852 12.3659L11.419 11.8556C11.2664 11.6758 11.1165 11.5 10.9693 11.3281C9.85499 10.0277 8.73008 9.39968 7.76446 9.23001C7.54188 9.1909 7.32675 9.17583 7.1206 9.18266C7.22613 9.25396 7.33159 9.33046 7.43687 9.41225C8.21557 10.0173 9.04468 10.7318 9.92705 11.4922C10.4804 11.9691 11.0547 12.4641 11.6507 12.9614C12.9775 10.037 14.0985 7.77323 15.4843 6.37877C16.2204 5.63807 17.04 5.13195 18.0115 4.90023C18.9791 4.66943 20.0694 4.71754 21.3384 5.03834L21.3877 5.0508L21.4314 5.07677C21.5295 5.13504 21.625 5.19407 21.7181 5.25383C21.7095 5.14366 21.6994 5.03513 21.688 4.9283C21.5735 3.86326 21.3179 3.00263 20.9024 2.39667C20.4974 1.80592 19.9317 1.44253 19.1365 1.36897C18.3022 1.29179 17.5759 1.45104 16.9208 1.8308C16.2603 2.21365 15.6532 2.83183 15.0822 3.70062ZM22.4487 5.77873C22.4372 5.45988 22.4159 5.15092 22.3839 4.8535C22.2635 3.73309 21.9879 2.74198 21.4797 2.00082C20.9611 1.24445 20.2106 0.76534 19.201 0.671943C18.2305 0.582162 17.3577 0.768454 16.5697 1.22519C15.7871 1.67884 15.1072 2.38812 14.4973 3.31618C13.3562 5.05243 12.4224 7.61491 11.5213 10.8965L11.5008 10.8727C10.311 9.48408 9.05122 8.74539 7.8856 8.54057C7.25332 8.42948 6.65453 8.47719 6.12235 8.65887C5.46151 8.40892 4.81249 8.35119 4.20427 8.45744C3.20062 8.63279 2.35372 9.24683 1.78056 10.084C0.634156 11.7585 0.550154 14.367 2.45462 16.4122C4.906 19.0448 8.76799 21.5026 13.7128 23.8795L14.016 23.2486C13.5419 23.0207 13.0784 22.7923 12.6259 22.5634L13.0494 22.0661C10.7834 20.1367 8.36868 18.0171 6.42393 15.901C4.09973 13.3719 4.31649 10.9917 5.42189 9.89529C5.62149 9.6973 5.85457 9.5344 6.11547 9.41443C6.40642 9.5485 6.70469 9.72983 7.00739 9.96502C7.78097 10.566 8.58021 11.2553 9.4445 12.0006L9.44457 12.0007L9.4446 12.0007L9.44469 12.0008L9.44472 12.0008C10.1053 12.5705 10.8039 13.173 11.5581 13.7938L11.9114 14.0847L12.0996 13.6676C13.5256 10.5067 14.6371 8.22436 15.9808 6.8722C16.6422 6.20671 17.3507 5.77749 18.1739 5.58113C18.9896 5.38658 19.9452 5.41412 21.1174 5.70463C21.3476 5.84306 21.5606 5.98476 21.7574 6.12954C21.7856 8.05859 21.4687 10.3659 21.006 12.6877C20.0102 16.5403 19.1699 18.5895 17.4329 22.1802L18.063 22.485C19.8158 18.8619 20.6748 16.7681 21.6862 12.8534L21.6887 12.8439L21.6906 12.8343C22.1103 10.7297 22.4205 8.59581 22.4557 6.72018C22.869 7.1258 23.1767 7.55176 23.3965 7.99502C23.8135 8.83612 23.9291 9.77015 23.8115 10.8022C23.5738 12.8892 22.3944 15.3054 20.9444 17.999C19.513 20.6582 18.0551 22.6244 16.9781 23.9776C16.7098 24.3146 16.4567 24.6238 16.2342 24.8957L16.2341 24.8959C16.0197 25.1578 15.8338 25.3849 15.6902 25.5687L15.6563 25.6122L15.6353 25.5978C8.69056 35.7006 6.68954 44.5114 7.39214 52.0625C8.09412 59.6068 11.4909 65.8499 15.2636 70.8294C19.0259 75.7953 21.0485 78.4701 22.1503 81.3947C23.1488 84.0453 23.396 86.9181 23.4326 91.9337C22.916 91.2161 22.1804 90.7625 21.201 90.6719C20.2305 90.5822 19.3577 90.7684 18.5697 91.2252C17.7871 91.6788 17.1072 92.3881 16.4973 93.3162C15.3562 95.0524 14.4224 97.6149 13.5213 100.897L13.5008 100.873C12.311 99.4841 11.0512 98.7454 9.8856 98.5406C9.25331 98.4295 8.65453 98.4772 8.12234 98.6589C7.4615 98.4089 6.81249 98.3512 6.20427 98.4574C5.20062 98.6328 4.35372 99.2468 3.78056 100.084C2.63416 101.758 2.55015 104.367 4.45462 106.412C6.906 109.045 10.768 111.503 15.7128 113.879L16.016 113.249C15.5419 113.021 15.0784 112.792 14.6259 112.563L15.0494 112.066C12.7834 110.137 10.3687 108.017 8.42393 105.901C6.09973 103.372 6.31649 100.992 7.42189 99.8953C7.62149 99.6973 7.85456 99.5344 8.11547 99.4144C8.40641 99.5485 8.70469 99.7298 9.00739 99.965C9.78103 100.566 10.5804 101.255 11.4447 102.001L11.4455 102.001L11.4467 102.003C12.1067 102.572 12.8047 103.174 13.5581 103.794L13.9114 104.085L14.0996 103.668C15.5256 100.507 16.6371 98.2243 17.9808 96.8722C18.6422 96.2067 19.3507 95.7775 20.1739 95.5811C20.9896 95.3866 21.9452 95.4141 23.1174 95.7046C23.3476 95.8431 23.5606 95.9847 23.7574 96.1295C23.7856 98.0586 23.4687 100.366 23.006 102.688C22.0102 106.54 21.1699 108.589 19.4329 112.18L20.063 112.485C21.8158 108.862 22.6748 106.768 23.6862 102.853L23.6887 102.844L23.6906 102.834C24.1103 100.73 24.4205 98.5958 24.4557 96.7202C24.869 97.1258 25.1767 97.5518 25.3965 97.995C25.8135 98.8361 25.9291 99.7701 25.8115 100.802C25.5738 102.889 24.3944 105.305 22.9444 107.999C21.513 110.658 20.0551 112.624 18.9781 113.978C18.7098 114.315 18.4567 114.624 18.2342 114.896L18.2339 114.896L18.2335 114.897L18.2326 114.898C18.0189 115.159 17.8335 115.385 17.6902 115.569C17.6143 115.666 17.5446 115.758 17.4837 115.843L17.4231 115.802C10.4783 125.904 8.47732 134.715 9.17992 142.266C9.8819 149.811 13.2787 156.054 17.0513 161.033C20.8137 165.999 22.8363 168.674 23.938 171.599C24.9715 174.342 25.2001 177.323 25.2235 182.671C24.7237 182.106 24.0551 181.751 23.201 181.672C22.2305 181.582 21.3577 181.768 20.5697 182.225C19.7871 182.679 19.1072 183.388 18.4973 184.316C17.3562 186.052 16.4224 188.615 15.5213 191.897L15.5008 191.873C14.311 190.484 13.0512 189.745 11.8856 189.541C11.2533 189.429 10.6545 189.477 10.1224 189.659C9.46151 189.409 8.81249 189.351 8.20428 189.457C7.20062 189.633 6.35372 190.247 5.78056 191.084C4.63416 192.758 4.55015 195.367 6.45462 197.412C8.906 200.045 12.768 202.503 17.7128 204.879L18.016 204.249C17.5419 204.021 17.0784 203.792 16.6259 203.563L17.0494 203.066C14.7834 201.137 12.3687 199.017 10.4239 196.901C8.09973 194.372 8.31649 191.992 9.42189 190.895C9.62149 190.697 9.85456 190.534 10.1155 190.414C10.4064 190.549 10.7047 190.73 11.0074 190.965C11.781 191.566 12.5803 192.255 13.4446 193.001L13.4447 193.001C14.1053 193.571 14.8039 194.173 15.5581 194.794L15.9114 195.085L16.0996 194.668C17.5256 191.507 18.6371 189.224 19.9808 187.872C20.6422 187.207 21.3507 186.777 22.1739 186.581C22.9896 186.387 23.9452 186.414 25.1174 186.705C25.3476 186.843 25.5606 186.985 25.7574 187.13C25.7856 189.059 25.4687 191.366 25.006 193.688C24.0102 197.54 23.1699 199.589 21.4329 203.18L22.063 203.485C23.8158 199.862 24.6748 197.768 25.6862 193.853L25.6887 193.844L25.6906 193.834C26.1103 191.73 26.4205 189.596 26.4557 187.72C26.869 188.126 27.1767 188.552 27.3965 188.995C27.8135 189.836 27.9291 190.77 27.8115 191.802C27.5738 193.889 26.3944 196.305 24.9444 198.999C23.513 201.658 22.0551 203.624 20.9781 204.978C20.7098 205.315 20.4567 205.624 20.2342 205.896C20.0198 206.158 19.8339 206.385 19.6902 206.569C19.5407 206.76 19.4153 206.931 19.3336 207.073C19.2931 207.144 19.2536 207.224 19.2307 207.307C19.2095 207.384 19.1873 207.52 19.2569 207.658L19.8818 207.343C19.9043 207.387 19.9095 207.428 19.9097 207.453C19.9099 207.478 19.9059 207.492 19.9057 207.493C19.9055 207.493 19.9059 207.492 19.9076 207.487C19.9088 207.484 19.9105 207.48 19.9129 207.475C19.9188 207.462 19.9278 207.444 19.9407 207.422C19.9955 207.326 20.0937 207.189 20.2418 207C20.3886 206.812 20.5639 206.598 20.7693 206.347L20.7701 206.346C20.9877 206.081 21.2389 205.774 21.5258 205.413C22.6185 204.041 24.1031 202.039 25.5608 199.331C26.9999 196.657 28.2515 194.124 28.507 191.881C28.636 190.749 28.5138 189.673 28.0236 188.684C27.6797 187.99 27.1621 187.355 26.4487 186.779C26.4372 186.46 26.4159 186.151 26.3839 185.854C26.2984 185.057 26.1344 184.326 25.8643 183.704H25.9256C25.9256 177.71 25.7425 174.403 24.5931 171.352C23.4516 168.322 21.363 165.565 17.6514 160.666L17.6093 160.611C13.8816 155.69 10.5625 149.57 9.87691 142.201C9.19564 134.88 11.1109 126.283 17.8895 116.359C17.9055 116.397 17.9095 116.431 17.9097 116.453C17.9099 116.478 17.9059 116.492 17.9057 116.493C17.9055 116.493 17.9057 116.493 17.9065 116.49C17.9075 116.488 17.9094 116.483 17.9129 116.475C17.916 116.468 17.9199 116.46 17.9247 116.451C17.9292 116.442 17.9345 116.433 17.9407 116.422C17.9955 116.326 18.0937 116.189 18.2418 116C18.3888 115.812 18.5644 115.597 18.7701 115.346L18.7705 115.346L18.7709 115.345C18.9883 115.08 19.2393 114.773 19.5258 114.413C20.6185 113.041 22.1031 111.039 23.5608 108.331C24.9999 105.657 26.2515 103.124 26.507 100.881C26.636 99.7487 26.5138 98.6728 26.0236 97.6841C25.6797 96.9904 25.1621 96.3548 24.4487 95.7787C24.4372 95.4599 24.4159 95.1509 24.3839 94.8535C24.3324 94.3737 24.2524 93.9176 24.1378 93.4947C24.1377 87.5046 23.9544 84.1981 22.8053 81.1479C21.6638 78.1178 19.5752 75.3611 15.8636 70.4622L15.8215 70.4067C12.0939 65.4866 8.77472 59.3658 8.08913 51.9976C7.41436 44.7456 9.28683 36.2427 15.9091 26.4391C15.9095 26.4442 15.9097 26.4489 15.9097 26.4532C15.9099 26.4773 15.906 26.4917 15.9057 26.4927L15.9057 26.4927C15.9053 26.4939 15.9068 26.4885 15.9129 26.4751C15.9188 26.462 15.9278 26.4445 15.9407 26.4218C15.9955 26.3263 16.0937 26.1892 16.2418 25.9997C16.3888 25.8115 16.5644 25.5972 16.7701 25.3461L16.7701 25.3461L16.7703 25.3459L16.7705 25.3457L16.7706 25.3455L16.7706 25.3455C16.9881 25.0801 17.2392 24.7736 17.5258 24.4135C18.6185 23.0405 20.1031 21.0388 21.5608 18.3308C22.9999 15.6573 24.2515 13.1242 24.507 10.8815C24.636 9.7487 24.5138 8.67278 24.0236 7.68408C23.6797 6.99041 23.1621 6.3548 22.4487 5.77873ZM25.7181 186.254C25.7095 186.144 25.6994 186.035 25.688 185.928C25.5735 184.863 25.3179 184.003 24.9024 183.397C24.4974 182.806 23.9317 182.443 23.1365 182.369C22.3022 182.292 21.5759 182.451 20.9208 182.831C20.2603 183.214 19.6532 183.832 19.0822 184.701C17.935 186.446 16.9781 189.134 16.0241 192.719L15.852 193.366L15.419 192.856C15.2664 192.676 15.1165 192.5 14.9693 192.328C13.855 191.028 12.7301 190.4 11.7645 190.23C11.5419 190.191 11.3267 190.176 11.1206 190.183C11.2261 190.254 11.3316 190.33 11.4369 190.412C12.2156 191.017 13.0447 191.732 13.927 192.492C14.4804 192.969 15.0547 193.464 15.6507 193.961C16.9775 191.037 18.0985 188.773 19.4843 187.379C20.2204 186.638 21.04 186.132 22.0115 185.9C22.9791 185.669 24.0694 185.718 25.3384 186.038L25.3877 186.051L25.4314 186.077C25.5295 186.135 25.625 186.194 25.7181 186.254ZM9.22367 190.14C8.90861 190.092 8.60748 190.098 8.32474 190.147C7.53458 190.285 6.84181 190.773 6.35816 191.479C5.39092 192.892 5.29269 195.137 6.96691 196.935C9.0713 199.195 12.2918 201.356 16.4475 203.473C14.2228 201.576 11.842 199.479 9.90853 197.375C7.44036 194.689 7.4539 191.861 8.92894 190.398C9.02206 190.306 9.12045 190.22 9.22367 190.14ZM23.7181 95.2538C23.7095 95.1437 23.6994 95.0351 23.688 94.9283C23.5735 93.8633 23.3179 93.0026 22.9024 92.3967C22.4974 91.8059 21.9317 91.4425 21.1365 91.369C20.3022 91.2918 19.5759 91.451 18.9208 91.8308C18.2603 92.2137 17.6532 92.8318 17.0822 93.7006C15.935 95.4463 14.9781 98.1336 14.0241 101.719L13.852 102.366L13.419 101.856C13.2664 101.676 13.1165 101.5 12.9693 101.328C11.855 100.028 10.7301 99.3997 9.76446 99.23C9.54188 99.1909 9.32675 99.1758 9.12059 99.1827C9.22612 99.254 9.33159 99.3305 9.43687 99.4122C10.2156 100.017 11.0447 100.732 11.927 101.492C12.4804 101.969 13.0547 102.464 13.6507 102.961C14.9775 100.037 16.0985 97.7732 17.4843 96.3788C18.2204 95.6381 19.04 95.1319 20.0115 94.9002C20.9791 94.6694 22.0694 94.7175 23.3384 95.0383L23.3877 95.0508L23.4314 95.0768C23.5295 95.135 23.625 95.1941 23.7181 95.2538ZM7.22368 99.1404C6.90862 99.092 6.60748 99.0976 6.32474 99.147C5.53458 99.285 4.84181 99.773 4.35816 100.479C3.39092 101.892 3.29269 104.137 4.96691 105.935C7.0713 108.195 10.2918 110.356 14.4475 112.473C12.2228 110.576 9.84204 108.479 7.90853 106.375C5.44036 103.689 5.4539 100.861 6.92894 99.3983C7.02206 99.3059 7.12045 99.2198 7.22368 99.1404ZM5.22368 9.14035C4.90862 9.09199 4.60748 9.09761 4.32474 9.147C3.53458 9.28504 2.84181 9.77303 2.35816 10.4795C1.39092 11.8922 1.29269 14.1372 2.96691 15.9352C5.0713 18.1951 8.29185 20.3564 12.4475 22.4729C10.2228 20.5758 7.84205 18.4785 5.90853 16.3746C3.44036 13.6889 3.4539 10.8614 4.92894 9.3983C5.02206 9.30593 5.12045 9.21984 5.22368 9.14035Z" fill="black"/>
</svg>
