<svg width="430" height="91" viewBox="0 0 430 91" fill="none" xmlns="http://www.w3.org/2000/svg">
<path d="M160.163 4.02523V18.809C160.163 18.809 160.739 22.8411 161.315 18.809C161.891 14.777 161.31 8.34304 161.315 4.02523C161.32 -0.29259 163.624 0.743467 163.619 4.02527C163.616 6.53802 163.618 19.8355 163.619 25.9298C163.619 27.9271 162.994 29.8591 162.13 31.6597C161.305 33.3785 160.399 35.7435 160.163 38.2008C160.224 52.4098 160.35 60.473 162.517 73.6316C162.61 74.1996 162.663 74.7808 162.665 75.3565C162.685 82.905 161.936 87.3664 160.017 89.4852C158.246 91.4414 155.099 90.0142 154.055 87.5907C151.256 81.0957 153.385 71.4156 160.383 71.3677C160.908 71.3642 161.31 71.8284 161.208 72.3431C160.67 75.0547 158.258 76.8777 155.395 77.9636C148.609 80.538 139.511 78.6543 132.328 77.6123C126.913 76.8267 122.057 75.9734 118.5 78.1362C116.036 79.634 113.239 79.795 109.93 79.1268C97.5649 76.6295 85.0853 71.4466 73.304 75.956C72.6995 76.1874 72.098 76.4323 71.5 76.6911C53.802 84.353 39.3727 77.7934 24 78.1362C8.62734 78.4789 -17 74.4882 -17 74.4882M160.163 4.02523Cnan nan nan nan 158.243 4.02523M160.163 4.02523C160.238 0.411751 158.311 -0.0252879 158.243 4.02523M158.243 4.02523V18.809M158.243 18.809Cnan nan nan nan 156.707 18.809M158.243 18.809C157.71 21.3978 157.369 21.2256 156.707 18.809M156.707 18.809C156.707 18.809 156.707 7.48064 156.707 4.02523C156.707 0.56981 154.788 -0.390136 154.788 4.02523C154.788 8.44059 154.788 18.809 154.788 18.809C153.996 21.682 153.639 21.1894 153.06 18.809C153.06 18.809 153.06 7.86459 153.06 4.02523C153.06 0.185863 150.948 -0.198115 150.948 4.02523C150.948 8.24857 150.948 24.185 150.948 24.185C150.948 28.9855 151.232 29.54 152 30.5C152.127 30.6593 154.948 32.3711 154.788 37.0488L154.404 66.233C154.233 72.2164 156.395 71.6398 160.163 69.3043C163.932 66.9688 167.459 58.1684 167.459 58.1684C175.161 37.0421 179.739 27.9029 191.075 18.809C209.461 5.84698 226.972 7.15256 241.378 20.3125C255.785 33.4724 255.948 50.963 249.634 68.8878C243.32 86.8125 209.417 97.9649 189.539 78.1362C180.616 70.0516 177.068 41.0902 191.075 28.9849C204.396 17.4725 216.955 18.1808 229.958 24.8378C231.306 25.5282 232.553 26.4206 233.643 27.4729C245.161 38.5971 245.393 47.4986 240.134 63.1797C239.455 65.2064 238.436 67.1291 236.971 68.6849C224.147 82.2958 205.042 80.0054 197.219 70.2643C188.955 59.9745 188.79 49.416 195.491 38.2008C202.192 26.9855 222.179 25.9129 231.01 33.4008C239.842 40.8887 240.418 58.1684 231.97 63.5444C223.523 68.9203 219.491 62.585 222.755 58.1684C226.019 53.7518 237.024 54.0858 254.242 53.5605C263.793 51.6787 269.598 44.538 271.33 43.0007C273.062 41.4634 276.322 48.3772 269.026 47.8006C261.73 47.2241 262.114 39.3528 262.114 39.3528C263.273 23.1437 265.261 13.9197 271.714 1.52926C276.376 -2.17662 273.058 28.9855 274.402 51.0645C275.535 69.673 274.485 80.9178 274.127 83.9931C274.06 84.5687 273.933 85.1389 273.721 85.6782C271.021 92.5533 266.715 87.9174 266.361 85.2505C266.326 84.9879 266.332 84.7334 266.32 84.4688C266.198 81.7466 265.573 65.2805 267.682 54.5205C271.683 47.3138 274.866 47.6849 281.122 51.0645C288.692 56.641 293.225 59.9484 302.625 60.8595C304.403 61.0318 306.197 60.8463 307.942 60.465C338.487 53.791 366.924 51.3424 381.728 61.0484C396.957 71.0323 391.604 66.8316 411 62.5C430.396 58.1684 422 64.5044 449 51.0645" stroke="black" stroke-width="0.7"/>
</svg>
