<svg width="114" height="133" viewBox="0 0 114 133" fill="none" xmlns="http://www.w3.org/2000/svg">
<path d="M113.581 125.971C112.214 111.457 111.429 103.032 108.872 100.915C105.665 100.963 104.465 104.886 102.567 109.942C99.5027 125.128 96.3215 132.894 93.0068 132.232C90.925 131.58 92.2936 126.45 95.6401 118.136C96.5017 111.987 97.4743 103.278 96.5385 99.733C96.3883 99.164 95.68 99.1395 95.3088 99.5963V99.5963C94.1959 100.966 93.741 102.675 93.7742 104.439C93.9999 116.42 95.1131 122.986 88.7664 127.083C87.1348 127.448 87.0729 125.241 88.3799 117.327C88.9552 113.78 88.5609 112.016 87.9934 107.572C87.1814 104.892 89.1977 96.5052 86.6451 94.5552M86.6451 94.5552C94.1143 98.8676 100.378 102.584 102.751 111.344C104.818 118.651 105.319 127.56 108.369 127.011C111.795 124.869 114.379 108.06 103.272 94.2189C102.033 92.6749 101.132 90.8757 100.707 88.9421C99.7922 84.776 98.6067 82.2059 96.3982 79.1918C95.8402 78.4302 95.135 77.77 94.371 77.2152C77.0629 64.6456 72.1188 58.2235 72.0996 55.5715C72.0926 54.6012 73.3342 54.542 74.1796 55.018C86.1484 61.7575 89.0168 74.0191 81.2799 91.4092C81.086 91.8451 81.0469 92.3466 81.1781 92.8054C84.814 105.521 86.5839 112.887 82.7979 116.814C81.8482 117.799 80.3783 118.45 79.1378 117.873C77.3564 117.043 75.7847 114.066 73.5568 105.542C72.3394 100.885 69.3912 96.8697 66.7442 92.8486C64.4878 89.4209 62.6437 84.9973 60.1562 79.1205C59.6858 78.009 59.4528 76.8087 59.1634 75.637C58.6735 73.6536 57.6153 71.3956 56.5079 69.7015C56.3403 69.4451 56.0554 69.2887 55.7496 69.2714C50.0439 68.9487 46.1752 68.9941 43.9211 68.6023C42.4097 68.3396 41.7798 66.4083 43.1655 65.7501C45.2419 64.7638 49.231 66.4354 55.0169 68.0878C55.4876 68.2223 55.9932 68.1774 56.4266 67.9499C61.5747 65.2472 64.989 61.3162 66.2039 56.4696C67.3212 52.013 64.7563 47.5129 60.8838 45.0403C57.5744 42.9273 54.4472 41.8785 50.4403 41.1503C48.0833 40.722 45.375 41.1645 44.318 43.3143C43.1983 45.5916 43.1054 48.7951 43.119 53.5463C43.1136 54.1389 43.043 54.642 42.9147 55.0675C40.0932 64.431 22.0013 51.9703 17.7895 43.1444C15.0234 37.3482 13.6178 31.0782 13.0578 21.5593C12.0579 4.55929 -12.9421 -5.44067 -7.94215 4.55929M86.6451 94.5552C86.5181 91.7232 85.5406 90.2177 83.3282 90.3639C83.0609 90.3816 82.8374 90.5735 82.7762 90.8342C82.2729 92.98 83.5799 93.6809 86.6451 94.5552Z" stroke="black" stroke-width="0.7"/>
</svg>
