<svg width="467" height="91" viewBox="0 0 467 91" fill="none" xmlns="http://www.w3.org/2000/svg">
<path d="M1 75.0432C16.7282 77.2589 33 80.5432 42 78.5432C59.8857 72.8776 72.1327 72.1213 90.5832 73.0045C96.8463 73.3043 103.047 74.3597 109.168 75.7198C113.982 76.7896 119.834 77.9698 124.5 78.5432C137.68 80.163 142.5 73.5432 158.5 79.0432C172.811 83.9627 177.961 79.0212 178.854 73.5049C179.028 72.4264 178.1 71.5052 177.059 71.8354C170.411 73.9435 167.893 86.8273 176 90.0432C180.08 91.6616 180.933 82.1036 180.616 71.0432C179.093 60.0912 177.373 44.6532 178 41.5432C178.061 37.8817 178.354 35.588 179.565 32.6154C180.13 31.2298 180.961 29.9018 181.204 28.4255C182.333 21.5839 181.787 1.04301 180.5 1.04321C179.055 1.04345 179.209 7.2138 179.47 17.3584C179.49 18.1443 179.436 18.9371 179.224 19.6941C178.904 20.8379 178.663 20.9182 178.393 20.2923C178.049 19.4942 178 18.6032 178 17.7342V4.03371C178 3.37501 177.955 2.71162 177.772 2.07881C177.425 0.879446 177.078 0.887956 176.732 2.07058C176.546 2.70896 176.5 3.37828 176.5 4.04338V17.2712C176.5 18.1158 176.416 18.9657 176.151 19.7677C175.741 21.0082 175.394 21.1903 174.894 19.8231C174.59 18.9887 174.5 18.0932 174.5 17.2049V4.22531C174.5 3.44 174.436 2.64762 174.184 1.90403C173.827 0.852413 173.537 0.917765 173.221 2.07749C173.048 2.71303 173 3.37527 173 4.0339V17.7163C173 18.2671 172.967 18.8214 172.835 19.3563C172.364 21.2733 171.636 21.2731 171.164 19.3554C171.033 18.8206 171 18.2665 171 17.7158V4.48265C171 3.52797 170.916 2.55656 170.532 1.68283C170.154 0.824806 169.839 0.823473 169.46 1.69409C169.083 2.56096 169 3.52308 169 4.46843V26.5432C169.154 28.9606 169.416 30.1858 171 31.5432C172.438 32.9776 172.908 34.6814 172.5 41.0432V67.5432C172.612 71.0971 173.543 71.9354 178.5 69.0432C183.37 64.3533 186.723 56.3114 191.351 44.5489C193.446 39.2242 195.888 34.0115 199.12 29.29C203.807 22.4443 208.613 17.5681 217.557 13.6589C224.289 10.7168 231.757 9.37119 239.037 10.3558C244.989 11.1609 249.869 13.1662 254.682 16.8359C264.014 23.9499 270.344 34.9694 271.606 46.6358C272.023 50.4987 271.802 54.4713 270.592 59.0444C267.25 71.6777 258.089 83.0812 245.795 87.5132C243.344 88.3969 240.771 88.9404 237.929 89.0613C220.195 89.8163 201.685 76.0276 199.235 58.4467C198.82 55.4717 198.934 52.2219 199.737 48.4925C202.436 35.9539 211.307 24.2202 223.7 20.9155C228.419 19.6571 232.888 19.9081 237.744 21.2802C246.566 23.7732 255.081 28.9807 259.237 37.1532C260.141 38.9307 260.771 40.7416 261.14 42.6363C264.371 59.2438 250.123 80.03 233.323 78.0302C232.399 77.9202 231.438 77.7453 230.433 77.5C220.938 75.1835 211.841 68.601 209.208 59.1893C209.099 58.7969 209.003 58.4038 208.921 58.0093C206.124 44.5333 217.779 29.4409 231.475 28.0843C231.669 28.065 231.864 28.0491 232.059 28.0365C244.427 27.2393 257.48 38.7277 256.335 51.0688C256.034 54.3107 254.571 57.5097 251.815 60.9785C250.971 62.0402 249.967 62.9758 248.826 63.7091C245.191 66.0456 241.316 67.2399 240.118 64.167C238.884 61.0045 240.961 57.3404 243.995 55.818C248.304 53.6559 254.292 53.5937 262.203 53.5685C265.356 53.5585 268.598 54.5355 271.694 53.9411C278.297 52.6737 286.779 45.6364 289.478 43.4588C289.817 43.185 290.284 43.0404 290.552 43.3849C291.497 44.603 291.665 48.6046 287 47.5432V47.5432C280.063 45.9649 279.803 37.3404 280.739 30.2885C282.213 19.1862 284.213 11.2585 289.645 1.66379C289.872 1.26366 290.324 0.874175 290.648 1.20007C292.644 3.20494 292 19.8974 292 34.0432C293.497 61.5048 294.481 84.2874 290.349 88.0595C289.374 88.9495 287.752 88.9205 286.527 88.4285C283.758 87.3164 283.05 80.8835 285.265 57.0242C285.416 55.4005 285.945 53.8102 286.919 52.5024C290.436 47.7793 293.4 46.7869 300 51.5432C310.11 61.1691 319.907 62.2031 343.5 57.5432C353.104 55.9498 360.998 54.7475 368.137 54.4207C388.181 53.5034 408.737 58.7007 428.716 56.8569V56.8569C434.229 56.3481 441.848 54.6132 447.29 53.5963C452.901 52.5479 457.586 51.0432 467 51.0432" stroke="black" stroke-width="0.7"/>
</svg>
