<svg width="99" height="114" viewBox="0 0 99 114" fill="none" xmlns="http://www.w3.org/2000/svg">
<path d="M103.053 116.252C94.9654 114.361 90.6625 109.009 83.1085 97.2399C74.6697 83.5714 69.4378 76.112 51.631 70.418C44.5712 67.7356 40.7489 66.1344 35.5115 62.1469C31.2355 58.5829 28.3806 58.0496 25.2319 59.3578C21.8026 60.7826 15.6713 65.0645 15.1289 61.3909C15.0221 60.6672 15.7392 59.5176 17.2527 57.803C23.1349 50.8552 35.4734 48.2586 35.9504 49.6546C35.9504 49.6546 35.5672 53.7979 21.2822 51.3405L11.2005 53.4879C5.97132 53.3658 5.11405 52.5508 8.34284 49.385C13.0506 45.4884 13.9755 44.6913 27.612 42.0571C25.4162 39.5612 24.7621 37.7196 5.27285 48.4766C-0.890015 49.9265 -0.502881 48.416 2.41516 44.3738C12.281 32.8684 29.8702 31.9518 31.4945 28.385C30.2715 25.9181 22.0197 15.9266 17.4659 8.12486C14.7507 3.47313 18.4481 1.44981 22.4832 5.01757C33.3936 14.6643 44.6328 29.5981 46.7567 35.4253C45.355 39.8225 36.9363 35.873 23.334 29.6277C22.0465 29.0366 20.6351 28.6838 19.223 28.7978C14.8006 29.1547 14.982 30.9217 17.7565 34.4667C18.9119 35.9429 20.5584 36.9416 22.3263 37.5652C32.2672 41.0716 36.8168 45.8571 41.6658 57.8603C43.9303 63.0206 46.5324 64.4525 52.5026 65.5456C63.4668 68.6318 68.6755 69.0194 74.8275 65.2294C80.2453 59.8073 78.8714 55.9519 73.6392 49.7795C72.2857 48.1827 70.6224 46.8926 68.8641 45.7569C52.6212 35.2658 31.4961 12.4418 19.2718 0.338537" stroke="black" stroke-width="0.7"/>
</svg>
